<svg xmlns="http://www.w3.org/2000/svg" viewBox="0 0 64 64">
  <defs>
    <linearGradient id="a" x1="8" x2="56" y1="8" y2="56" gradientUnits="userSpaceOnUse">
      <stop offset="0" stop-color="#14b8a6"/>
      <stop offset="1" stop-color="#0f172a"/>
    </linearGradient>
  </defs>
  <rect width="64" height="64" rx="18" fill="#f8fafc"/>
  <path fill="url(#a)" d="M14 42.5c6.8-1.8 12.4-7.3 14.4-14.2l1.2-4.1c.3-1 1.8-1 2.1 0l1.3 4.2c1.9 6.8 7.2 12 14 13.9l3.7 1c1 .3 1 1.8 0 2.1l-3.8 1c-6.7 1.8-12.1 7-14 13.8l-1.2 4.3c-.3 1-1.8 1-2.1 0l-1.2-4.3c-1.9-6.8-7.2-12.1-14-13.9l-3.8-1c-1-.3-1-1.8 0-2.1Z"/>
</svg>
